<svg xmlns="http://www.w3.org/2000/svg" fill="none" viewBox="0 0 326 374"><path fill="#000" fill-rule="evenodd" d="m244.923 326.76 80.577-46.49V93.73l-80.577-46.49C200.605 21.67 163.74.75 163 .75c-.74 0-37.605 20.92-81.923 46.49L.5 93.73v36.54l80.577 46.49c44.318 25.569 81.188 46.49 81.934 46.49.746 0 22.793-12.375 48.993-27.5 26.2-15.125 47.83-27.5 48.066-27.5.237 0 .421 17.016.41 37.812l-.02 37.813-47.736 27.5c-26.254 15.125-48.344 27.659-49.089 27.853-.744.194-22.822-12.04-49.06-27.188-26.239-15.147-48.315-27.54-49.058-27.54-2.41 0-62.633 35.274-62.24 36.455.483 1.449 157.282 92.139 159.459 92.229.885.036 37.869-20.855 82.187-46.424ZM98.041 112c.002.344 14.197 8.874 31.544 18.957 17.347 10.082 32.396 18.238 33.442 18.125 2.126-.231 64.937-36.099 64.937-37.082 0-1.104-63.019-36.875-64.964-36.875-1.948 0-64.966 35.773-64.96 36.875Z" clip-rule="evenodd"/></svg>