<svg xmlns="http://www.w3.org/2000/svg" fill="none" viewBox="0 0 2434 2447"><path fill="#EF4138" fill-rule="evenodd" d="M163.276 1781.59s31.12-7.31 34.823-6.59c161.3-42.82 295.899-71.43 466.18-116.62 198.965 208.26 436.681 322.44 734.401 239.21 292.55-81.76 457.67-284.36 520.4-575.45 173.56-47.24 340.63-92.71 508.38-138.35 47.71 378.37-201.52 976.37-795.17 1190.3-565.24 203.67-1224.44-27.48-1512.039-623.36C-156.481 1177.32 62.413 494.602 592.36 170.02 1075.95-126.171 1703.61-1.724 1974.14 285.631c-14.2 7.634-30.63 13.481-43.37 23.843-122.14 99.271-243.63 199.355-363.85 297.978-282.71-128.54-551.7-128.183-792.583 72.472-237.818 198.121-293.706 464.586-217.255 764.516l-393.806 337.15Z" clip-rule="evenodd"/></svg>