<svg xmlns="http://www.w3.org/2000/svg" fill="none" viewBox="0 0 374 374"><rect width="373.847" height="373.873" fill="#fff" rx="48"/><path fill="#EA5B26" d="M285.926 373.839c1.906-7.33 3.514-13.95 5.367-20.5a14.664 14.664 0 0 1 9.987-10.321c9.139-3.08 18.285-6.14 27.399-9.291 7.563-2.614 8.651-5.29 5.445-12.828-6.184-14.54-12.224-29.143-18.601-43.598a28.987 28.987 0 0 1-1.582-19.44 52787.293 52787.293 0 0 0 32.342-131.287c.159-.646.401-1.277.5-1.931.292-1.929 1.217-4.067-.783-5.55-1.668-1.236-3.514-.485-5.243.176-7.92 3.032-15.839 6.066-23.756 9.104-4.037 1.544-8.057 3.133-12.126 4.589-5.617 2.009-8.443.561-10.002-5.274a15087.106 15087.106 0 0 1-15.973-60.28c-.503-1.903-.536-4.34-2.866-4.824-2.744-.57-3.527 2.067-4.611 3.822a18652.89 18652.89 0 0 0-32.448 52.742c-4.075 6.622-6.352 6.729-10.861.598-13.618-18.517-27.239-37.03-40.865-55.54-.691-.939-1.35-1.908-2.114-2.785-.973-1.118-1.953-2.615-3.642-2.19-1.821.456-2.286 2.173-2.647 3.876a13932.41 13932.41 0 0 1-8.975 41.963c-1.185 5.53-2.271 11.084-3.585 16.583-1.357 5.682-3.943 6.736-8.956 3.631a13807.804 13807.804 0 0 1-51.725-32.196c-.99-.617-1.946-1.303-2.985-1.82-4.03-2.004-6.121-.787-5.844 3.777.735 12.131 1.695 24.248 2.577 36.37.483 6.641 1.146 13.273 1.431 19.922.209 4.893-2.456 6.959-7.266 6.055a39196.402 39196.402 0 0 1-58.849-11.103c-7.627-1.449-9.344.34-7.008 7.704a520411.563 520411.563 0 0 0 67.894 213.943c1.872 5.898 1.862 5.903-4.548 5.903-17.833.001-35.666-.001-53.5-.005C14.688 373.799 0 359.097 0 336.337V36.841C.002 14.771 14.866.001 37.07.001h299.998c21.769 0 36.754 14.88 36.76 36.68.027 100.166.026 200.332-.003 300.499-.007 21.497-14.925 36.497-36.407 36.637-16.986.11-33.974.022-51.492.022Z"/><path fill="#EA5B26" d="M275.997 252.76c-.089 50.87-36.302 86.1-88.622 86.064-55.719-.039-88.27-39.49-88.284-87.191a88.63 88.63 0 0 1 88.584-88.661c50.181-.073 90.027 42.804 88.322 89.788Z"/><path fill="#FEFEFE" d="M321.571 107.681c-10.541.023-16.31-5.79-16.27-16.392.041-10.694 5.686-16.317 16.355-16.29 10.285.028 15.916 5.697 16.024 16.133.109 10.649-5.612 16.527-16.109 16.549ZM47.683 117.345c.023-10.692 5.167-15.893 15.818-15.993 10.562-.1 16.246 5.647 16.182 16.361-.065 10.851-5.422 16.149-16.31 16.128-10.853-.021-15.715-5.132-15.69-16.496ZM231.295 53.683c10.669.058 15.717 5.056 15.673 15.52-.045 10.787-5.696 16.334-16.429 16.122-10.531-.207-15.738-5.632-15.698-16.357.039-10.47 5.287-15.346 16.454-15.285ZM158.841 75.673c-.019 10.444-5.05 15.317-15.822 15.325-11.07.01-16.203-4.928-16.178-15.562.024-10.614 5.412-16.086 15.904-16.152 10.784-.067 16.117 5.362 16.096 16.389ZM160.841 254.993c0-12.999-.034-25.999.015-38.998.023-6.182 2.349-7.506 7.714-4.227a14232.385 14232.385 0 0 1 62.968 38.703c5.14 3.174 5.199 6.136.152 9.259a15866.675 15866.675 0 0 1-63.362 38.992c-5.025 3.074-7.439 1.674-7.467-4.231-.063-13.166-.02-26.332-.02-39.498Z"/></svg>