<svg xmlns="http://www.w3.org/2000/svg" fill="none" viewBox="0 0 296 297"><path fill="#FF7705" fill-rule="evenodd" d="M231.467 296.244H64.777C28.932 296.244 0 267.31 0 231.467V64.777C0 28.932 28.933 0 64.776 0h166.259c35.843 0 64.777 28.933 64.777 64.776v166.691c0 35.843-28.934 64.777-64.345 64.777Z" clip-rule="evenodd"/><path fill="#fff" fill-rule="evenodd" d="M99.324 249.173c-3.455 0-11.66-1.728-19.865-3.887-8.205-2.159-13.819-5.182-13.819-5.182-3.023-1.727-4.318-4.318-4.75-6.909 0 0-.864-8.637-.864-25.047 0-12.524.432-19.433.864-21.16.432-2.16 1.295-3.887 4.318-3.887 3.023 0 6.478 0 15.546 1.727 10.796 2.16 15.979 3.887 18.57 4.751 2.159.863 4.75 2.591 5.182 6.045 0 0 1.295 9.069 1.295 22.888 0 11.228-.863 22.456-1.295 25.911-.432 3.022-1.728 4.75-5.182 4.75Zm48.798-38.866c0-2.159-.864-3.887-2.159-5.182l-28.07-27.638c-3.023-3.455-6.91-5.614-11.66-6.478 0 0-10.364-2.591-26.342-5.182-15.547-2.591-19.865-2.159-19.865-2.159-13.819 0-14.25 14.683-14.683 16.41-.431 3.455-1.295 12.955-1.295 26.343 0 15.546.864 26.342 1.295 33.251 1.296 9.933 9.07 14.683 12.524 16.842.864.432 10.796 4.75 20.296 7.773 6.478 2.16 17.274 5.182 22.024 5.614 1.728.432 11.228 1.728 15.979-4.318l29.797-38.434c1.295-1.728 1.727-2.591 1.727-5.182l.432-11.66Zm65.208-56.139c-4.318-.432-8.637-.432-12.523-.432l-66.936 6.477s-4.318.864-6.909 3.887c-2.16 2.591-2.16 4.75-2.16 4.75l1.728 1.728 26.342 26.774c3.023 3.023 4.75 5.614 4.75 9.932v15.115c0 2.591-.431 5.182-1.727 6.909l-14.251 19.433 14.251 5.614c5.614 1.727 10.364 1.727 15.978.864l61.322-14.251s11.228-3.023 11.228-13.387V190.01c0-.863-.432-1.295-1.296-1.295l-39.298 7.773c-1.295.432-2.591 1.727-2.591 3.023v18.137c0 1.296 1.296 2.16 2.591 1.728l12.092-2.591c.432 0 1.296.432 1.296 1.295v6.046c0 1.296-.864 2.159-2.16 2.159l-13.819 3.023s-9.5 2.591-9.5-7.773v-23.32c0-9.932 7.341-11.227 7.341-11.227l43.184-8.205c1.296 0 2.16-1.296 2.16-2.16v-9.5c0-10.364-9.933-11.228-9.933-11.228l-21.16-1.727Zm-80.323-98.029c15.979.864 28.07 15.979 27.206 34.548-.863 18.569-14.682 33.252-30.229 32.82-15.978-.864-27.637-15.978-26.774-34.548.864-19 14.251-33.683 29.797-32.82Zm64.777 43.185c.863-12.524 9.5-22.456 20.296-22.024 9.933.431 18.138 11.228 17.706 23.319-.864 12.524-9.933 22.456-20.297 22.024-10.364-.432-18.137-10.796-17.705-23.32Zm53.98 1.727c0-25.047-18.569-44.912-41.457-44.912-13.387 0-25.479 6.91-33.252 17.706-6.046-26.774-28.069-46.207-54.844-46.207-31.956 0-57.435 27.638-57.003 61.321 0 34.116 25.91 62.186 57.003 61.754 1.728 0 88.528-6.046 88.096-6.046 24.615-2.159 41.457-19.001 41.457-43.616Z" clip-rule="evenodd"/></svg>