<svg xmlns="http://www.w3.org/2000/svg" xml:space="preserve" style="enable-background:new 0 0 125.17 111.71" viewBox="0 0 125.17 111.71"><path d="M-928.26-714.84c6.29 13.2 3.93 29.52-7.04 40.49l-50.19 50.18a3 3 0 0 1-4.24 0l-14.61-14.61 76.08-76.06z" style="fill:#ffbe0a" transform="translate(1050 735)"/><path d="m-985.48-724.54-41 41-11.31 11.31 16.73 16.73 76.03-76.03-.09-.09c-13.18-6.22-29.43-3.85-40.36 7.08z" style="fill:#ff2373" transform="translate(1050 735)"/><path d="m-1021.06-655.5 16.73 16.73 76.07-76.06a35.087 35.087 0 0 0-6.93-9.8 35.194 35.194 0 0 0-9.8-6.92l-76.07 76.05z" style="fill:#ff784b" transform="translate(1050 735)"/><path d="m-1020.96-689.06-25.55-25.55c-6.34 13.24-4.04 29.55 6.9 40.49l1.85 1.85 16.8-16.79z" style="fill:#964bff" transform="translate(1050 735)"/><path d="m-1004.16-705.86-25.54-25.54c-3.55 1.7-6.89 4.02-9.83 6.96a35.626 35.626 0 0 0-6.96 9.83l25.54 25.54 16.79-16.79z" style="fill:#be3cfa" transform="translate(1050 735)"/><path d="m-987.36-722.66-1.85-1.85c-10.94-10.94-27.25-13.22-40.49-6.89l25.54 25.54 16.8-16.8z" style="fill:#dc46e1" transform="translate(1050 735)"/></svg>