<svg xmlns="http://www.w3.org/2000/svg" fill="none" viewBox="0 0 387 368"><path fill="#000" d="M0 101.69v249.332l121.206-102.47V0L0 101.69Z"/><path fill="#000" d="M0 118.644v249.332l121.206-101.724V16.954L0 118.644ZM167.577 266.064h-23.139L23.308 368h22.84l121.429-101.936ZM211.115 266.064h-23.136L66.849 368h22.84l121.426-101.936ZM255.271 266.064h-23.136L111.006 368h22.84l121.425-101.936ZM298.81 266.064h-23.137L154.545 368h22.839L298.81 266.064ZM343.461 266.064h-23.139L199.193 368h22.84l121.428-101.936ZM387 266.064h-23.136L242.735 368h22.839L387 266.064ZM299.755 55.737v.03l-.05-.03-45.711 78.99-45.714-78.99-.05.03v-.03h-38.237v154h38.237v-77.792l31.771 54.898 5.653 9.769h16.678l7.357-12.712 30.066-51.955v77.792h38.238v-154h-38.238Z"/></svg>