<svg xmlns="http://www.w3.org/2000/svg" fill="none" viewBox="0 0 65 24"><path fill="#000" fill-rule="evenodd" d="M52.308 17.977c-3.384 0-6.127-2.676-6.127-5.977s2.743-5.977 6.127-5.977S58.435 8.7 58.435 12s-2.743 5.977-6.127 5.977Zm-40.005 0c-3.384 0-6.127-2.676-6.127-5.977s2.743-5.977 6.127-5.977c3.385 0 6.127 2.676 6.127 5.977s-2.742 5.977-6.127 5.977ZM52.302 0c-3.15.001-6.3 1.171-8.698 3.51l-10.43 10.174c-.222.217-.529.35-.868.35-.34 0-.646-.133-.87-.35L21.009 3.51C18.608 1.172 15.46.001 12.309 0h-.011c-3.15.001-6.3 1.171-8.698 3.51C1.2 5.851 0 8.926 0 12s1.2 6.149 3.6 8.49C6 22.83 9.15 24 12.303 24c3.153 0 6.305-1.17 8.705-3.51l3.468-3.384c.223-.217.527-.347.866-.347.34 0 .648.134.87.35l5.225 5.094c.222.219.528.35.869.35.34 0 .647-.131.87-.35l5.222-5.093c.224-.217.531-.351.87-.351.34 0 .645.13.868.347l3.468 3.384c2.4 2.34 5.551 3.51 8.703 3.51 3.153 0 6.304-1.17 8.704-3.51 2.4-2.341 3.6-5.416 3.6-8.49 0-3.075-1.2-6.149-3.6-8.49C58.613 1.172 55.463.001 52.313 0h-.011Z" clip-rule="evenodd"/></svg>