<svg xmlns="http://www.w3.org/2000/svg" fill="none" viewBox="0 0 30 30"><path fill="#494949" d="M29.166 14.689c0-4.104-5.892-10.9-10.907-13.564C16.935.42 15.664 0 14.585 0 13.282 0 11.7.606 10.07 1.6c-1.588.97-3.23 2.305-4.708 3.794-1.495 1.506-2.837 3.178-3.8 4.794C.598 11.804 0 13.38 0 14.682c0 5.191 9.423 14.69 14.58 14.69 1.304 0 2.88-.607 4.506-1.6 1.593-.972 3.23-2.306 4.714-3.8 1.494-1.506 2.825-3.166 3.789-4.782.985-1.623 1.577-3.194 1.577-4.501Z"/><path fill="#40C9FF" d="M19.37 9.867c-1.478-1.555-3.092-3.11-4.763-4.5-1.4-1.158-2.84-2.201-4.281-3.018-1.495.91-3.044 2.169-4.435 3.58l8.695 8.759 4.785-4.82Z"/><path fill="#9661BA" d="M18.051 1.898C16.797 1.23 15.604.839 14.586.839c-1.232 0-2.72.573-4.26 1.511 1.44.822 2.88 1.859 4.281 3.017l3.444-3.47Z"/><path fill="#FFA233" d="m19.119 19.255-4.533-4.567-8.695-8.759c-1.407 1.425-2.665 2.996-3.58 4.525 2.908 5.069 8.442 10.143 12.313 13.331l4.495-4.53Z"/><path fill="#FF5A7E" d="M18.834 27.033a81.795 81.795 0 0 1-4.21-3.255C10.753 20.59 5.218 15.522 2.31 10.447 1.397 11.974.838 13.458.838 14.689c0 4.898 8.886 13.85 13.747 13.85 1.232 0 2.716-.574 4.25-1.506Z"/><path fill="#FFD91D" d="M28.333 14.689c0-3.872-5.551-10.276-10.28-12.791l-3.445 3.47c1.675 1.384 3.285 2.945 4.763 4.5l-4.786 4.82 4.534 4.568-4.495 4.522a82.167 82.167 0 0 0 4.21 3.255c1.5-.916 3.05-2.173 4.445-3.586 1.408-1.412 2.667-2.983 3.576-4.506.92-1.533 1.478-3.022 1.478-4.252Z"/></svg>