<svg xmlns="http://www.w3.org/2000/svg" fill="none" viewBox="0 0 30 30"><path fill="#000" d="M14.943 30c8.252 0 14.942-6.716 14.942-15 0-8.284-6.69-15-14.942-15C6.69 0 0 6.715 0 15s6.69 15 14.943 15Zm3.066-21.18c.669-.461 1.231-.694 1.985-.833.571-.103 2.066.022 2.682.224.896.296 1.489.591 2.154 1.075a6.978 6.978 0 0 1 2.583 3.717c.308 1.088.308 2.503-.004 3.686-.295 1.11-1.084 2.472-1.95 3.35-.714.72-1.78 1.383-2.721 1.683-1.016.327-1.896.426-2.839.314-.696-.081-.87-.117-1.481-.314-.843-.27-2.249-1.097-2.155-1.267.018-.036.415-.636.879-1.335l.848-1.271.2.18c.299.27.826.559 1.226.69 1.325.416 2.717.098 3.711-.851a3.705 3.705 0 0 0 1.067-1.796c.119-.448.111-1.433-.018-1.908-.406-1.505-1.432-2.495-2.815-2.714-1.397-.224-2.436.47-3.85 2.562-.183.27-.638.994-1.017 1.612-1.699 2.781-2.52 3.87-3.658 4.832-.798.681-1.476 1.044-2.45 1.312-.402.113-.487.12-1.365.12-.83 0-.987-.008-1.361-.103-1.016-.246-1.629-.506-2.396-1.02-1.561-1.043-2.574-2.606-2.967-4.581-.089-.461-.075-1.944.027-2.441.126-.58.312-1.146.553-1.688.688-1.487 2.012-2.76 3.547-3.399 1.637-.69 3.449-.717 5.162-.076.526.192 1.481.757 1.865 1.097l.187.17-.87 1.299c-.478.712-.888 1.303-.914 1.312-.027.009-.09-.03-.143-.094-.188-.202-.71-.57-1.004-.707-1.071-.502-2.212-.498-3.239.013-.459.228-.75.448-1.115.842-.329.358-.518.699-.665 1.209-.08.278-.094.448-.094 1.008.005.622.014.698.139 1.074.214.65.478 1.08.963 1.572.75.757 1.666 1.101 2.75 1.03.589-.035.973-.183 1.512-.577.486-.354 1.013-.896 1.459-1.509.571-.78.754-1.062 1.709-2.634 1.692-2.792 2.701-4.058 3.883-4.865Z"/></svg>