<svg xmlns="http://www.w3.org/2000/svg" fill="none" viewBox="0 0 16 14"><path fill="#1AB7EA" d="M15.72 3.43c-.069 1.515-1.127 3.589-3.172 6.22-2.114 2.75-3.903 4.125-5.367 4.125-.906 0-1.673-.837-2.3-2.512L3.626 6.659c-.465-1.674-.964-2.512-1.498-2.512-.116 0-.524.245-1.221.733l-.731-.943c.767-.674 1.524-1.35 2.269-2.025C3.469 1.028 4.237.562 4.75.515c1.21-.116 1.955.712 2.235 2.483.302 1.912.511 3.1.628 3.566.349 1.586.733 2.378 1.152 2.378.326 0 .815-.515 1.467-1.543.651-1.03 1-1.812 1.047-2.35.093-.887-.256-1.332-1.047-1.332-.373 0-.757.085-1.151.255C9.845 1.468 11.305.25 13.461.32c1.598.047 2.351 1.084 2.259 3.11Z"/></svg>